PathFileType	4	(X/Y/Z)	C:\Users\Basilio\Documents\Thesis Gigler\squatting_fais\c3dfiles\047\SLS_pre_front3\markers_experimental.trc
DataRate	CameraRate	NumFrames	NumMarkers	Units	OrigDataRate	OrigDataStartFrame	OrigNumFrames
200.000000	200.000000	4	60	mm	200.000000	670	1340
Frame#	Time	FHD			LBHD			RBHD			C7			T10			CLAV			LSHO			LUUPA			LMUPA			LDUPA			LLEP			LMEP			LRAD			LUL			LRFIN			RSHO			RUPA1			RMUPA			RDUPA			RLEP			RMEP			RRAD			RUL			RUFIN			LASI			RASI			USACR			LSACR			RSACR			LTHI1			LTHI2			LTHI3			LTHI4			LLFC			LMFC			LTIB1			LTIB2			LTIB3			LTIB4			LLMAL			LMMAL			LMT1			LMT2			LMT5			RTHI			RTHI2			RTHI3			RTHI4			RLFC			RMFC			RTIB1			RTIB2			RTIB3			RTIB4			RLMAL			RMMAL			RHEE			RMT1			RMT2			RMT5			
		X1	Y1	Z1	X2	Y2	Z2	X3	Y3	Z3	X4	Y4	Z4	X5	Y5	Z5	X6	Y6	Z6	X7	Y7	Z7	X8	Y8	Z8	X9	Y9	Z9	X10	Y10	Z10	X11	Y11	Z11	X12	Y12	Z12	X13	Y13	Z13	X14	Y14	Z14	X15	Y15	Z15	X16	Y16	Z16	X17	Y17	Z17	X18	Y18	Z18	X19	Y19	Z19	X20	Y20	Z20	X21	Y21	Z21	X22	Y22	Z22	X23	Y23	Z23	X24	Y24	Z24	X25	Y25	Z25	X26	Y26	Z26	X27	Y27	Z27	X28	Y28	Z28	X29	Y29	Z29	X30	Y30	Z30	X31	Y31	Z31	X32	Y32	Z32	X33	Y33	Z33	X34	Y34	Z34	X35	Y35	Z35	X36	Y36	Z36	X37	Y37	Z37	X38	Y38	Z38	X39	Y39	Z39	X40	Y40	Z40	X41	Y41	Z41	X42	Y42	Z42	X43	Y43	Z43	X44	Y44	Z44	X45	Y45	Z45	X46	Y46	Z46	X47	Y47	Z47	X48	Y48	Z48	X49	Y49	Z49	X50	Y50	Z50	X51	Y51	Z51	X52	Y52	Z52	X53	Y53	Z53	X54	Y54	Z54	X55	Y55	Z55	X56	Y56	Z56	X57	Y57	Z57	X58	Y58	Z58	X59	Y59	Z59	X60	Y60	Z60	

671	3.35	-66.11109161376955	1404.783569335938	-1083.266479492188	-245.2415161132813	1387.89404296875	-1116.659423828125	-228.1524505615235	1390.540283203125	-969.3206176757815	-301.9524841308594	1235.10595703125	-1041.101684570313	-438.7284545898439	965.8045043945315	-1004.545104980469	-171.1994018554688	1138.81640625	-1063.001708984375	-236.8428802490235	1201.584228515625	-1198.9658203125	-161.2956085205078	1125.69140625	-1331.680053710938	-127.2773895263672	1162.150634765625	-1324.505126953125	-96.43276214599612	1124.288696289063	-1357.388305664063	-33.75035095214844	1137.137573242188	-1375.957153320313	-12.47575855255127	1074.520263671875	-1334.376098632813	237.1873016357422	1114.525024414063	-1373.421752929688	220.7220916748047	1132.9765625	-1447.286743164063	313.4386901855469	1136.119506835938	-1396.809814453125	-195.5998077392579	1210.207275390625	-922.3828735351565	-75.24880218505861	1140.153198242188	-811.2857666015627	-45.18657684326173	1171.228759765625	-835.7398071289065	-6.404126644134523	1130.483520507813	-812.6223754882815	62.33998489379884	1137.081665039063	-822.8316650390627	61.97354888916017	1068.985107421875	-866.8852539062502	321.0162353515626	1109.346557617188	-897.461120605469	319.5449829101563	1124.827392578125	-824.171569824219	402.1105346679689	1123.837158203125	-888.5002441406252	-334.4145507812501	720.9304199218751	-1084.02099609375	-325.5381164550782	750.5677490234376	-858.5916137695315	-504.0327148437501	820.8518066406252	-977.3408203125002	-519.5534057617189	789.9947509765627	-1002.166137695313	-512.7493896484376	791.5938720703127	-946.706970214844	-339.4678955078126	594.5072021484376	-1157.860961914063	-255.812484741211	581.1254882812501	-1162.017944335938	-229.6586456298829	620.5953979492189	-1148.857055664063	-227.3550872802735	528.3724975585939	-1164.954833984375	-108.3548812866211	418.224578857422	-1140.439819335938	-67.93253326416017	437.0779113769532	-1014.275085449219	-149.9080352783203	274.6740417480469	-1018.146118164063	-178.8901062011719	227.2034149169922	-1085.819946289063	-168.7471923828125	223.8867492675782	-1040.022094726563	-227.8441772460938	177.2300415039063	-1005.018493652344	-324.2745666503907	115.4771881103516	-1050.916748046875	-299.9886169433594	136.6545104980469	-962.5655517578127	-188.7109680175782	62.76918029785158	-977.2622070312502	-188.652816772461	59.79413986206056	-1021.806823730469	-237.7432556152344	45.69868087768555	-1066.593505859375	-308.5217590332032	600.4200439453126	-760.0568847656251	-241.6522521972657	599.4127197265626	-766.9236450195314	-225.1977233886719	624.7686157226564	-779.706237792969	-193.8488159179688	530.9340209960939	-773.730651855469	-71.80500793457033	453.3823852539064	-802.528015136719	-62.39772033691408	457.6294860839845	-927.1054687500002	42.70829772949219	389.2416381835939	-829.5917968750002	62.93517684936525	291.0014648437501	-785.294860839844	90.94951629638673	319.6177062988282	-808.2568969726565	126.4897994995117	290.5191345214844	-844.0855102539065	190.1934509277344	142.8408203125	-810.7778930664065	189.6731567382813	163.0202789306641	-900.3804321289065	161.2022247314453	76.44923400878908	-853.9414062500002	335.9969787597657	182.103256225586	-902.641784667969	340.8489990234376	194.5986480712891	-859.6138916015627	324.5140380859376	153.1077117919922	-797.7760009765627	
672	3.355	-65.95523071289064	1403.92626953125	-1082.968017578125	-244.9700317382813	1387.390747070313	-1116.609375	-227.8550415039063	1389.623901367188	-969.0842895507815	-301.6375427246094	1234.59912109375	-1041.107543945313	-438.4833984375001	964.9880981445315	-1004.301208496094	-170.9419860839844	1138.220825195313	-1063.183959960938	-236.3422393798829	1201.20947265625	-1199.046264648438	-161.0246276855469	1125.110229492188	-1331.69482421875	-127.9901199340821	1161.490234375	-1323.82763671875	-96.06589508056643	1123.731201171875	-1357.404296875	-33.41615295410157	1136.722534179688	-1375.760620117188	-12.12610626220703	1074.17431640625	-1334.396606445313	237.564926147461	1113.691284179688	-1373.513793945313	220.9447784423829	1132.317626953125	-1447.2509765625	313.8988342285157	1135.153564453125	-1396.945434570313	-195.2579193115235	1209.558959960938	-922.3961181640627	-75.26281738281251	1139.209838867188	-811.8933715820315	-45.12103271484376	1170.35986328125	-835.272644042969	-6.395201683044435	1129.515502929688	-812.5939941406252	62.6009979248047	1136.24169921875	-822.8588867187502	62.21508789062501	1068.437744140625	-867.0651855468752	321.3720092773438	1108.519287109375	-897.5505371093752	319.9188232421876	1124.119995117188	-824.2736816406252	402.206024169922	1123.157348632813	-888.6162109375002	-334.5032653808594	720.2982788085939	-1084.07763671875	-325.4989929199219	750.0841674804689	-858.6833496093752	-504.097137451172	820.3853149414065	-977.4027099609377	-519.4785156250001	789.494079589844	-1002.174499511719	-512.7603759765626	791.194519042969	-946.720153808594	-339.3801269531251	594.0855102539064	-1157.852294921875	-255.7185974121094	580.8618164062501	-1162.005126953125	-230.0999298095704	620.6627807617189	-1148.926879882813	-227.2266082763672	528.0891723632814	-1164.910400390625	-108.0962982177735	418.1487426757814	-1140.382202148438	-67.63874816894533	436.7058105468751	-1014.288208007813	-149.7553863525391	274.5845642089844	-1018.100219726563	-178.7007293701172	227.1890869140626	-1085.819213867188	-168.7085418701172	223.8351745605469	-1039.859985351563	-227.8506011962891	177.14990234375	-1004.861206054688	-324.2176818847657	115.5162429809571	-1050.940185546875	-299.9975585937501	136.6545104980469	-962.551940917969	-188.7413635253907	62.75481414794923	-977.2114257812502	-188.6333312988282	59.87976455688478	-1021.765930175781	-237.6946411132813	45.74933624267579	-1066.5654296875	-308.4695129394532	600.1561889648439	-760.1922607421876	-241.5462646484376	599.0120239257814	-767.0875244140626	-225.1344604492188	624.2576904296876	-779.7747802734377	-193.644271850586	530.4180297851564	-773.961364746094	-71.56867980957033	452.9888000488282	-802.4520263671877	-62.27901840209962	457.4336547851564	-927.1633911132815	42.75413513183594	388.894744873047	-829.4415283203127	63.06245803833009	290.6527404785157	-785.280944824219	91.04775238037111	319.3214721679688	-808.2183227539065	126.8413162231446	290.3658142089844	-844.336853027344	190.7169494628907	142.6412353515625	-811.0129394531252	190.2368621826172	162.9284210205078	-900.6240234375002	161.6777038574219	76.17282104492189	-854.149597167969	336.5307617187501	181.8535766601563	-902.7904052734377	341.0044860839844	194.3693847656251	-859.4575195312502	324.8087158203126	152.8515625	-797.8618164062502	
673	3.36	-65.6397171020508	1403.524780273438	-1083.000244140625	-244.6783905029297	1386.799682617188	-1116.552001953125	-227.4137878417969	1389.057250976563	-969.234802246094	-301.2550354003907	1234.320922851563	-1041.202026367188	-438.2478637695314	964.7398071289065	-1004.455017089844	-170.4748992919922	1137.641479492188	-1063.226806640625	-236.1003875732422	1200.68212890625	-1199.069946289063	-160.6027374267578	1124.619506835938	-1331.748413085938	-126.7429962158203	1161.05517578125	-1324.28076171875	-95.74158477783205	1123.334594726563	-1357.330322265625	-33.11816787719727	1136.220703125	-1375.755249023438	-11.96552181243897	1073.791015625	-1334.696899414063	237.6103515625001	1112.955932617188	-1373.611938476563	221.4174346923829	1131.50927734375	-1447.297607421875	314.1201782226563	1134.32177734375	-1396.841430664063	-194.9269561767579	1208.9951171875	-922.3656005859377	-74.94918823242189	1138.799560546875	-811.1652832031252	-44.76023864746094	1169.543090820313	-835.4719238281252	-6.180670738220217	1129.107421875	-812.5922851562502	62.67566299438478	1135.28662109375	-822.7261962890627	62.64143371582033	1067.64697265625	-867.4636230468752	321.5524597167969	1107.64892578125	-897.427917480469	319.9718627929688	1123.148803710938	-824.201599121094	402.5330200195314	1122.429931640625	-888.6206054687502	-334.7673950195313	719.5603637695314	-1084.337768554688	-325.3408203125001	749.7112426757814	-859.0783691406252	-504.0745239257814	819.8814697265627	-977.398620605469	-519.3779296875001	789.0345458984377	-1002.212707519531	-512.7421875000001	790.9497070312502	-946.708923339844	-339.3807678222657	593.7321166992189	-1157.830688476563	-255.6151275634766	580.6329956054689	-1161.946166992188	-230.0008392333985	620.3809204101564	-1148.9296875	-227.0734405517579	527.8398437500001	-1164.891845703125	-107.8283767700196	417.9944763183595	-1140.324462890625	-67.45448303222658	436.4430236816407	-1014.1533203125	-149.639404296875	274.5992736816407	-1018.021545410156	-178.6297454833985	226.9749603271485	-1085.7412109375	-168.6065368652344	223.8199462890626	-1039.820556640625	-227.7735900878907	177.1784820556641	-1004.843139648438	-324.1785583496094	115.5184783935547	-1050.906494140625	-299.9734497070313	136.469467163086	-962.3908691406252	-188.6781921386719	62.77601623535158	-977.2063598632815	-188.531982421875	59.87130737304689	-1021.707336425781	-237.6943969726563	45.80060958862305	-1066.551635742188	-308.4451293945313	599.7675781250001	-760.0964355468751	-241.3921203613282	598.5754394531251	-767.2697143554689	-225.0234069824219	623.8215332031251	-779.874450683594	-193.6225128173829	530.2067871093751	-773.851989746094	-71.48898315429689	452.7911071777345	-802.4648437500002	-62.15023803710939	457.2736816406251	-927.232604980469	42.90291976928712	388.6589355468751	-829.4102783203127	63.23268890380861	290.3168945312501	-785.375183105469	91.1039505004883	319.0896606445313	-808.1340942382815	127.0688247680664	290.1422729492188	-844.5588989257815	190.8539123535157	142.456787109375	-811.0269165039065	190.6578369140625	162.8906860351563	-900.9019775390627	162.0820007324219	76.0324172973633	-854.3911132812502	336.8305053710938	181.887680053711	-902.977233886719	341.1474304199219	194.3946380615235	-859.6279296875002	325.1464843750001	152.8976745605469	-798.1152954101565	
674	3.365	-65.60679626464845	1402.842529296875	-1082.911987304688	-244.2749176025391	1386.272094726563	-1116.431762695313	-227.3267822265626	1388.620483398438	-968.980163574219	-300.8718872070313	1233.603515625	-1041.242919921875	-438.065155029297	964.2398681640627	-1004.569763183594	-170.3118743896485	1137.098510742188	-1063.181396484375	-235.965805053711	1200.146240234375	-1199.0380859375	-160.2325439453125	1124.208984375	-1331.71435546875	-126.3656692504883	1160.535034179688	-1324.218383789063	-95.40882110595705	1122.891845703125	-1357.328002929688	-32.79615783691407	1135.747436523438	-1375.65625	-11.69255542755127	1073.220947265625	-1334.571533203125	237.8511199951172	1112.27490234375	-1373.662841796875	221.7458038330079	1130.930053710938	-1447.228149414063	314.7701416015626	1133.60693359375	-1396.963134765625	-194.7163238525391	1208.307250976563	-922.4943847656252	-74.47829437255861	1138.140625	-811.4250488281252	-44.21161270141602	1168.865844726563	-835.7504882812502	-5.89509677886963	1128.435668945313	-812.6333618164065	62.9802703857422	1134.686767578125	-822.943054199219	62.80930709838869	1066.87109375	-867.3821411132815	321.7228088378907	1106.902099609375	-897.3433837890627	319.9896545410157	1122.497802734375	-824.0584716796877	402.7045898437501	1121.284057617188	-888.3740844726565	-334.6081542968751	719.3486938476564	-1084.3740234375	-325.4166564941407	749.2022094726564	-859.1138916015627	-504.0067138671876	819.4971313476565	-977.4461059570315	-519.2485351562501	788.694763183594	-1002.191467285156	-512.6000366210939	790.458190917969	-946.7054443359377	-339.3875427246094	593.4863891601564	-1157.839477539063	-255.5040893554688	580.3976440429689	-1161.904296875	-229.9978485107422	620.0763549804689	-1148.873046875	-226.9552154541016	527.5506591796876	-1164.873901367188	-107.5772781372071	417.8508605957032	-1140.302734375	-67.45727539062501	436.3094177246095	-1014.039489746094	-149.5171813964844	274.3984680175782	-1017.94384765625	-178.2426300048828	226.922836303711	-1085.740356445313	-168.605453491211	223.638656616211	-1039.681884765625	-227.7180175781251	177.0051574707032	-1004.902099609375	-324.1555480957032	115.4751129150391	-1050.889892578125	-299.9588623046876	136.6425018310547	-962.4568481445315	-188.6763153076172	62.77491378784181	-977.202087402344	-188.5168609619141	59.875057220459	-1021.691162109375	-237.7291564941407	45.76904678344727	-1066.53466796875	-308.3399658203126	599.3890991210939	-760.1508178710939	-241.3561248779297	598.0767822265626	-767.3147583007814	-225.0234985351563	623.4544067382814	-779.522888183594	-193.5880279541016	529.8804321289064	-773.9631958007815	-71.43499755859376	452.3623046875001	-802.3919067382815	-61.97363662719728	457.0240783691407	-927.2319335937502	43.22633743286134	388.4771728515626	-829.624938964844	63.40692138671876	290.0249633789063	-785.4392700195315	91.22338104248048	318.9819030761719	-808.097595214844	127.394027709961	289.8723754882813	-844.6488037109377	191.149398803711	142.1055145263672	-811.4534912109377	190.9431915283203	162.7557983398438	-901.0003662109377	162.2746734619141	75.99368286132814	-854.3655395507815	335.6837463378907	182.5091247558594	-902.964782714844	341.7503967285157	194.2175750732422	-859.814392089844	325.4894714355469	152.8869934082032	-798.141540527344	
